<svg width="109" height="50" viewBox="0 0 109 50" fill="none" xmlns="http://www.w3.org/2000/svg">
<path d="M21.25 0L8.23333 36.8458L31.8104 29.0208L21.25 0ZM0 37.9646L6.41667 50H35.9562L42.1646 37.9646H0Z" fill="#F2F2F2"/>
<path d="M49.9 22.64C48.9933 22.1867 48.0867 21.6 47.18 20.88C46.2733 20.1467 45.82 19.2 45.82 18.04C45.8333 16.92 46.2933 15.9933 47.2 15.26C48.1067 14.5133 49.3333 14.14 50.88 14.14C51.56 14.14 52.26 14.24 52.98 14.44C53.7133 14.6267 54.3467 14.9 54.88 15.26L53.8 17.72C53.08 17.4667 52.5333 17.3067 52.16 17.24C51.7867 17.16 51.3733 17.12 50.92 17.12C50.5067 17.12 50.18 17.22 49.94 17.42C49.7 17.6067 49.58 17.8267 49.58 18.08C49.58 18.3733 49.78 18.6333 50.18 18.86C50.5933 19.0733 51.08 19.3267 51.64 19.62C52.6 20.1133 53.5267 20.7333 54.42 21.48C55.3133 22.2267 55.76 23.1533 55.76 24.26C55.76 25.4067 55.2733 26.36 54.3 27.12C53.34 27.88 52.02 28.26 50.34 28.26C49.6467 28.26 48.86 28.16 47.98 27.96C47.1133 27.7467 46.4133 27.48 45.88 27.16L47.08 24.42C47.4267 24.6333 47.9133 24.8333 48.54 25.02C49.18 25.1933 49.7467 25.28 50.24 25.28C50.8133 25.28 51.2467 25.1667 51.54 24.94C51.8467 24.7133 52 24.4733 52 24.22C52 23.98 51.78 23.72 51.34 23.44C50.9 23.16 50.42 22.8933 49.9 22.64Z" fill="#F2F2F2"/>
<path d="M56.8891 23.16C56.8891 21.5333 57.3891 20.26 58.3891 19.34C59.4024 18.42 60.6424 17.96 62.1091 17.96C63.6557 17.96 64.8157 18.46 65.5891 19.46C66.3624 20.46 66.7491 21.64 66.7491 23V24.26H60.8491C61.0091 24.6333 61.2491 24.9 61.5691 25.06C61.9024 25.22 62.2957 25.3 62.7491 25.3C63.1757 25.3 63.6091 25.26 64.0491 25.18C64.5024 25.1 64.9157 24.9667 65.2891 24.78L66.3091 27.24C65.7491 27.6533 65.0557 27.92 64.2291 28.04C63.4024 28.16 62.7891 28.22 62.3891 28.22C60.8157 28.22 59.5024 27.82 58.4491 27.02C57.4091 26.2067 56.8891 24.92 56.8891 23.16ZM63.2691 22.06C63.2557 21.8467 63.1557 21.6 62.9691 21.32C62.7824 21.0267 62.4624 20.88 62.0091 20.88C61.6757 20.88 61.4024 20.9867 61.1891 21.2C60.9891 21.4 60.8424 21.6867 60.7491 22.06H63.2691Z" fill="#F2F2F2"/>
<path d="M70.9837 24.74C70.9837 24.9 71.0504 25.0333 71.1837 25.14C71.3171 25.2467 71.4704 25.3 71.6438 25.3C71.8571 25.3 72.0704 25.2533 72.2838 25.16C72.4971 25.0667 72.7104 24.9333 72.9238 24.76V24.04H71.8037C71.5638 24.04 71.3638 24.1067 71.2038 24.24C71.0571 24.36 70.9837 24.5267 70.9837 24.74ZM68.2637 18.88C68.7704 18.6533 69.4104 18.4467 70.1837 18.26C70.9571 18.06 71.7437 17.96 72.5437 17.96C73.8637 17.96 74.8637 18.3267 75.5437 19.06C76.2237 19.7933 76.5638 20.7733 76.5638 22V28H74.9437L74.2838 27.26C73.9904 27.5533 73.6038 27.7867 73.1237 27.96C72.6437 28.1333 72.1304 28.22 71.5837 28.22C70.3571 28.22 69.4437 27.9133 68.8438 27.3C68.2438 26.6867 67.9437 25.88 67.9437 24.88C67.9437 23.8267 68.2971 23.06 69.0038 22.58C69.7104 22.0867 70.6237 21.84 71.7438 21.84H72.9037C72.8504 21.5467 72.7104 21.32 72.4837 21.16C72.2571 21 71.9771 20.92 71.6438 20.92C71.3104 20.92 70.9171 20.98 70.4638 21.1C70.0104 21.2067 69.5971 21.34 69.2237 21.5L68.2637 18.88Z" fill="#F2F2F2"/>
<path d="M55.54 48V41.42L53.7 43.9L52.24 44.1L50.04 41.42V48H46.4V34.4H48.9L53 39.58L56.76 34.4H59.18V48H55.54Z" fill="#F2F2F2"/>
<path d="M64.2259 44.74C64.2259 44.9 64.2926 45.0333 64.4259 45.14C64.5593 45.2467 64.7126 45.3 64.8859 45.3C65.0993 45.3 65.3126 45.2533 65.5259 45.16C65.7393 45.0667 65.9526 44.9333 66.1659 44.76V44.04H65.0459C64.8059 44.04 64.6059 44.1067 64.4459 44.24C64.2993 44.36 64.2259 44.5267 64.2259 44.74ZM61.5059 38.88C62.0126 38.6533 62.6526 38.4467 63.4259 38.26C64.1993 38.06 64.9859 37.96 65.7859 37.96C67.1059 37.96 68.1059 38.3267 68.7859 39.06C69.4659 39.7933 69.8059 40.7733 69.8059 42V48H68.1859L67.5259 47.26C67.2326 47.5533 66.8459 47.7867 66.3659 47.96C65.8859 48.1333 65.3726 48.22 64.8259 48.22C63.5993 48.22 62.6859 47.9133 62.0859 47.3C61.4859 46.6867 61.1859 45.88 61.1859 44.88C61.1859 43.8267 61.5393 43.06 62.2459 42.58C62.9526 42.0867 63.8659 41.84 64.9859 41.84H66.1459C66.0926 41.5467 65.9526 41.32 65.7259 41.16C65.4993 41 65.2193 40.92 64.8859 40.92C64.5526 40.92 64.1593 40.98 63.7059 41.1C63.2526 41.2067 62.8393 41.34 62.4659 41.5L61.5059 38.88Z" fill="#F2F2F2"/>
<path d="M75.4808 41.26C75.4808 41.3533 75.5275 41.4333 75.6208 41.5C75.7274 41.5533 75.9541 41.64 76.3008 41.76C77.1008 42.04 77.8675 42.4267 78.6008 42.92C79.3341 43.4 79.7008 44.0867 79.7008 44.98C79.7008 45.9933 79.3608 46.7867 78.6808 47.36C78.0141 47.9333 77.0074 48.22 75.6608 48.22C75.2608 48.22 74.6075 48.1067 73.7008 47.88C72.8074 47.6533 72.0808 47.32 71.5208 46.88L72.5408 44.38C72.9274 44.58 73.3941 44.78 73.9408 44.98C74.5008 45.1667 74.9541 45.26 75.3008 45.26C75.5141 45.26 75.6741 45.22 75.7808 45.14C75.8875 45.06 75.9408 44.9867 75.9408 44.92C75.9408 44.8267 75.8875 44.7467 75.7808 44.68C75.6741 44.6 75.4741 44.5133 75.1808 44.42C74.3808 44.14 73.6008 43.76 72.8408 43.28C72.0941 42.7867 71.7208 42.0933 71.7208 41.2C71.7208 40.1867 72.1008 39.3933 72.8608 38.82C73.6208 38.2467 74.6741 37.96 76.0208 37.96C76.4208 37.96 76.9874 38.06 77.7208 38.26C78.4674 38.4467 79.1208 38.76 79.6808 39.2L78.6608 41.7C78.2741 41.5 77.8674 41.32 77.4408 41.16C77.0141 41 76.6274 40.92 76.2808 40.92C75.9874 40.92 75.7808 40.96 75.6608 41.04C75.5408 41.12 75.4808 41.1933 75.4808 41.26Z" fill="#F2F2F2"/>
<path d="M89.3739 47.36C89.1339 47.5733 88.7406 47.7733 88.1939 47.96C87.6606 48.1333 87.1606 48.22 86.6939 48.22C85.4539 48.22 84.3539 47.9 83.3939 47.26C82.4339 46.62 81.9539 45.6533 81.9539 44.36V41.56H80.4539V38.7H81.9539V36.08L85.5939 35.58V38.7H87.9339L88.2739 41.56H85.5939V43.96C85.5939 44.36 85.7072 44.68 85.9339 44.92C86.1739 45.1467 86.5072 45.26 86.9339 45.26C87.1072 45.26 87.3272 45.2333 87.5939 45.18C87.8606 45.1133 88.1072 45.0133 88.3339 44.88L89.3739 47.36Z" fill="#F2F2F2"/>
<path d="M90.1703 43.16C90.1703 41.5333 90.6703 40.26 91.6703 39.34C92.6836 38.42 93.9236 37.96 95.3903 37.96C96.937 37.96 98.097 38.46 98.8703 39.46C99.6436 40.46 100.03 41.64 100.03 43V44.26H94.1303C94.2903 44.6333 94.5303 44.9 94.8503 45.06C95.1836 45.22 95.577 45.3 96.0303 45.3C96.457 45.3 96.8903 45.26 97.3303 45.18C97.7836 45.1 98.197 44.9667 98.5703 44.78L99.5903 47.24C99.0303 47.6533 98.337 47.92 97.5103 48.04C96.6836 48.16 96.0703 48.22 95.6703 48.22C94.097 48.22 92.7837 47.82 91.7303 47.02C90.6903 46.2067 90.1703 44.92 90.1703 43.16ZM96.5503 42.06C96.537 41.8467 96.437 41.6 96.2503 41.32C96.0636 41.0267 95.7436 40.88 95.2903 40.88C94.957 40.88 94.6836 40.9867 94.4703 41.2C94.2703 41.4 94.1236 41.6867 94.0303 42.06H96.5503Z" fill="#F2F2F2"/>
<path d="M101.825 48V38.32H103.645L104.525 39.3C104.925 39.0333 105.398 38.8 105.945 38.6C106.492 38.4 107.038 38.3 107.585 38.3L108.325 41.22C107.845 41.22 107.352 41.2867 106.845 41.42C106.338 41.5533 105.878 41.78 105.465 42.1V48H101.825Z" fill="#F2F2F2"/>
</svg>
