<svg width="17" height="18" viewBox="0 0 17 18" fill="none" xmlns="http://www.w3.org/2000/svg">
<path d="M15.4889 7.90903L2.36386 0.417625C2.14262 0.293519 1.88886 0.239663 1.63628 0.263211C1.38371 0.286758 1.14427 0.386594 0.949785 0.549457C0.755299 0.71232 0.614967 0.930501 0.54743 1.17502C0.479893 1.41953 0.488349 1.67881 0.571673 1.91841L2.99355 8.98637C2.99324 8.98897 2.99324 8.99159 2.99355 8.99419C2.99311 8.99677 2.99311 8.99941 2.99355 9.002L0.571673 16.0856C0.504943 16.2741 0.484398 16.4758 0.511763 16.6739C0.539127 16.8719 0.613602 17.0605 0.728936 17.2238C0.844271 17.3872 0.9971 17.5204 1.1746 17.6125C1.35209 17.7045 1.54908 17.7526 1.74902 17.7528C1.96595 17.7522 2.17906 17.6957 2.36777 17.5887L15.4857 10.0848C15.6792 9.97642 15.8404 9.81849 15.9527 9.62724C16.065 9.43599 16.1244 9.21829 16.1248 8.9965C16.1252 8.77471 16.0666 8.55681 15.955 8.36515C15.8434 8.1735 15.6828 8.01499 15.4896 7.90591L15.4889 7.90903ZM1.74902 16.5028V16.4958L4.1037 9.62778H8.62402C8.78978 9.62778 8.94875 9.56193 9.06596 9.44472C9.18317 9.32751 9.24902 9.16854 9.24902 9.00278C9.24902 8.83702 9.18317 8.67805 9.06596 8.56084C8.94875 8.44363 8.78978 8.37778 8.62402 8.37778H4.10995L1.7537 1.51216L1.74902 1.50278L14.874 8.9895L1.74902 16.5028Z" fill="black"/>
</svg>
